<svg xmlns="http://www.w3.org/2000/svg" viewBox="0 0 425.49 82.83">
  <title>Asset 1</title>
  <g id="Layer_2" data-name="Layer 2">
    <g id="Layer_1-2" data-name="Layer 1">
      <g>
        <path d="M358.45,66.39a18.17,18.17,0,0,1,0-36.33,18,18,0,0,1,18,18.11C376.49,58.48,368.76,66.39,358.45,66.39Zm0-28.84c-5.77,0-10,5.21-10,10.74,0,5.71,4.11,10.61,10,10.61s9.88-5,9.88-10.55S364.22,37.55,358.45,37.55Z" style="fill: #fff"/>
        <path d="M387,46.19V65.28h-9v-34h7v3h1.48c2.14-3.31,3.7-4.17,7.52-4.17V38C389,38.21,387,41.22,387,46.19Z" style="fill: #fff"/>
        <path d="M414.69,65.28l-11.57-16H403v16h-8v-45h8v27h.12l10.85-16h9.92L411.64,47.94l13.85,17.34Z" style="fill: #fff"/>
        <path d="M70.06,66.39a18.17,18.17,0,0,1,0-36.33,18,18,0,0,1,18,18.11A17.77,17.77,0,0,1,70.06,66.39Zm0-28.84c-5.76,0-10,5.21-10,10.74,0,5.71,4.11,10.61,10,10.61s9.88-5,9.88-10.55S75.83,37.55,70.06,37.55Z" style="fill: #fff"/>
        <path d="M118,65.28v-4h-.38c-2.28,3.45-6.69,5.11-10.87,5.11-9.94,0-17.36-8.41-17.36-18.1a18,18,0,0,1,10.67-16.76,16.64,16.64,0,0,1,6.69-1.47c4.18,0,7.43,1.11,10.25,4.18v-14h8v45ZM107.61,37.55c-5.52,0-10.06,5-10.06,10.43,0,5.65,4.11,10.92,10.06,10.92,5.77,0,10.07-5.09,10.07-10.67S113.38,37.55,107.61,37.55Z" style="fill: #fff"/>
        <path d="M161.7,51.28H135.25a6.24,6.24,0,0,0,1.1,3.08,9.85,9.85,0,0,0,8.29,4.54,8.24,8.24,0,0,0,7.85-4.62h8.59a17.46,17.46,0,0,1-16.44,12.11,17.74,17.74,0,0,1-18-18c0-10.19,7.61-18.29,17.92-18.29A17.49,17.49,0,0,1,162.19,47.8,10.34,10.34,0,0,1,161.7,51.28ZM144.64,37.49c-5,0-8.47,2.94-9.64,7.79h18.84C153.05,40.37,149.61,37.49,144.64,37.49Z" style="fill: #fff"/>
        <path d="M164,65.28v-45h8v45Z" style="fill: #fff"/>
        <path d="M186.33,66.08a13,13,0,0,1-10.15-4.46,12.78,12.78,0,0,1-2.57-7.34h8.32c.55,2.45,1.65,4.34,4.46,4.34a3.47,3.47,0,0,0,3.67-3.42,3.09,3.09,0,0,0-.49-1.77c-1.1-1.53-5.44-2.69-7.15-3.31-4.53-1.59-7.58-4.7-7.58-9.72,0-6.17,5.44-10.51,11.37-10.51a10.88,10.88,0,0,1,11.06,10.39h-7.94c-.42-2-1.71-3.24-4.05-2.86A3,3,0,0,0,183,39.79c-.28,2.18,1.25,2.71,2.78,3.3,1,.37,2,.68,2.94,1,5.25,1.65,9.47,3.85,9.47,10.15A11.64,11.64,0,0,1,186.33,66.08Z" style="fill: #fff"/>
        <g>
          <path d="M253.05,37.57c-5.77,0-10,5.22-10,10.74,0,5.71,4.12,10.63,10,10.63s9.89-5,9.89-10.57S258.83,37.57,253.05,37.57Z" style="fill: #fff"/>
          <path d="M225.94,48.25c0-5.59-4.3-10.68-10.07-10.68-5.53,0-10.07,5-10.07,10.43a11.42,11.42,0,0,0,.11,1.55c.11.6.24,1.2.38,1.79a10.11,10.11,0,0,0,9.58,7.6C221.64,58.94,225.94,53.84,225.94,48.25Z" style="fill: #fff"/>
          <path d="M283,20.28h0l0,0Z" style="fill: #fff"/>
          <path d="M274,38.28h-4v-7h4v-12h8.52A42.58,42.58,0,0,0,247,0a41.79,41.79,0,0,0-40.79,32.68,19.49,19.49,0,0,1,2.12-1.13,16.49,16.49,0,0,1,6.7-1.48c4.18,0,7.43,1.11,10,4.18v-14h8v45h-7v-4h-.12c-2.26,3.48-6.64,5.07-10.79,5.07-.62,0-1.24,0-1.84-.09a42.26,42.26,0,0,0,67.84-1H274ZM253.05,66.43a18.18,18.18,0,1,1,0-36.36,18,18,0,0,1,18.06,18.12C271.11,58.51,263.37,66.43,253.05,66.43Z" style="fill: #fff"/>
          <path d="M287.87,31.28A41.3,41.3,0,0,0,283,20V31.28Z" style="fill: #fff"/>
          <path d="M330,31.28v18.9c0,4.36-1.14,8.84-6.29,8.84a6.46,6.46,0,0,1-5.51-3.19c-1.14-1.9-1.2-4.79-1.2-6.94V31.28h-8V48.89c0,2.15-.06,5-1.2,6.94A6.46,6.46,0,0,1,302.29,59c-5.15,0-6.29-4.48-6.29-8.84V31.28h-8v7h-5v24.4a39.27,39.27,0,0,0,4.89-11.16c.12,3,.74,6.25,2.56,8.7,2.64,3.49,6.87,5.09,11.23,5.09,4.54,0,9.06-1.42,11.76-5.15,2.7,3.73,7.21,5.15,11.75,5.15,4.36,0,8.59-1.6,11.23-5.09,2-2.73,2.58-6.47,2.58-9.73V31.28Z" style="fill: #fff"/>
        </g>
        <path d="M8,65.28V46.38c0-4.36,1.14-8.84,6.29-8.84a6.46,6.46,0,0,1,5.51,3.19c1.14,1.91,1.2,4.79,1.2,6.94V65.28h8V47.67c0-2.15.06-5,1.2-6.94a6.46,6.46,0,0,1,5.51-3.19C40.86,37.54,42,42,42,46.38v18.9h9V45.4c0-3.38-.55-7.24-2.57-10.07a13.51,13.51,0,0,0-11.2-5.27c-4.54,0-9,1.47-11.73,5.34-2.69-3.87-7.19-5.34-11.73-5.34a13.51,13.51,0,0,0-11.2,5.27C.55,38.16,0,42,0,45.4V65.28Z" style="fill: #fff"/>
      </g>
    </g>
  </g>
</svg>
